# xmcd
#
# Track frame offsets:
#	150
#	12936
#	25390
#	38515
#	50046
#	63696
#	78305
#	95301
#	107776
#	121669
#	135433
#	144318
#
# Disc length: 2074 seconds
#
# Revision: 1
# Processed by: cddbd v1.5.2PL0 Copyright (c) Steve Scherf et al.
# Submitted via: audiograbber 1.83.01
#
DISCID=9608180c
DTITLE=The Derailers - Guaranteed to Satisfy!
DYEAR=2008
DGENRE=
TTITLE0=Bad Bad Girl
TTITLE1=Guaranteed To Satisfy
TTITLE2=I'm Still Missing You
TTITLE3=The Sun Is Shining On Me
TTITLE4=The Way You Move
TTITLE5=The Blood Of A Man
TTITLE6=Wallflower
TTITLE7=The Get-Go
TTITLE8=You Carried Me
TTITLE9=Bittersweet Teardrops
TTITLE10=Com Pickin'
TTITLE11=Without You
EXTD=
EXTT0=
EXTT1=
EXTT2=
EXTT3=
EXTT4=
EXTT5=
EXTT6=
EXTT7=
EXTT8=
EXTT9=
EXTT10=
EXTT11=
PLAYORDER=
